<svg width="289" height="56" viewBox="0 0 289 56" fill="none" xmlns="http://www.w3.org/2000/svg">
<path d="M50.6155 25.9458H36.6603V17.4038H48.2482L50.6155 13.5774H36.6603V5.76828H48.2104L50.5723 1.94727H29.2773V29.7668H48.2482L50.6155 25.9458Z" fill="#FFFFFF"/>
<path d="M86.471 13.5767H73.2941L70.9322 17.4031H79.0069V26.5164C71.0511 27.8206 65.4247 23.8595 65.4247 15.8887C65.4247 7.75627 71.4186 4.95922 76.9693 4.95922C80.2338 4.95922 83.6605 5.69216 86.1899 6.87242V2.02744C83.7848 1.45617 80.1528 1.13281 76.645 1.13281C62.9385 1.13281 57.1445 8.19819 57.1445 15.3552C57.1445 25.5679 65.6301 30.58 77.0504 30.58C81.6175 30.58 85.0873 29.6045 86.4764 29.1572V13.5767H86.471Z" fill="#FFFFFF"/>
<path d="M114.652 17.4038L117.014 13.5774H103.065V5.76828H114.609L116.977 1.94727H95.6816V29.7668H114.652L117.014 25.9458H103.065V17.4038H114.652Z" fill="#FFFFFF"/>
<path d="M146.184 20.0877L131.455 1.94727H125.213V29.7668H129.785V11.5887L145 29.7668H150.713V1.94727H146.184V20.0877Z" fill="#FFFFFF"/>
<path fill-rule="evenodd" clip-rule="evenodd" d="M159.917 1.94727H174.034C184.682 1.94727 189.492 6.91081 189.492 14.0301C189.492 24.3237 180.682 29.7722 170.689 29.7722H159.917V1.94727ZM167.3 25.9458H170.197C174.85 25.9458 181.293 23.6662 181.293 15.4906C181.293 10.4839 179.293 5.76828 172.153 5.76828H167.3V25.9458Z" fill="#FFFFFF"/>
<path fill-rule="evenodd" clip-rule="evenodd" d="M192.286 29.7722L203.75 1.94727H209.787L221.337 29.7722H213.381L210.441 22.4482H199.874L196.815 29.7722H192.286ZM205.139 9.10426L201.345 18.6218H208.809L205.139 9.10426Z" fill="#FFFFFF"/>
<path fill-rule="evenodd" clip-rule="evenodd" d="M242.491 1.94727C249.793 1.94727 251.631 5.27785 251.631 8.29047C251.631 13.7444 245.999 15.981 244.41 16.3475L253.631 29.7668H244.983L236.903 17.4846H235.514V29.7722H228.131V1.94727H242.491ZM235.514 13.863H237.881C240.654 13.863 243.88 12.5211 243.88 9.47073C243.88 6.25871 240.902 5.76828 238.697 5.76828H235.514V13.863Z" fill="#FFFFFF"/>
<path d="M8.26934 0.146484H0V34.9075H20.5328L23.1812 30.623H8.26934V0.146484Z" fill="#FFFFFF"/>
<path d="M283.379 0.146484L274.607 13.7221L266.111 0.146484H256.609L268.808 19.2354V34.9075H277.029V18.8689L289 0.146484H283.379Z" fill="#FFFFFF"/>
<path fill-rule="evenodd" clip-rule="evenodd" d="M282.53 31.3783C282.822 30.5375 283.638 29.7992 284.687 29.6752C286.114 29.5082 287.13 30.2842 287.513 31.0711C287.735 31.5184 287.794 31.8363 287.794 32.2998C287.794 34.7196 284.941 35.6466 283.314 34.2561C282.698 33.7226 282.109 32.5908 282.53 31.3783ZM283.119 32.0519C283.006 33.2753 283.871 34.3208 285.135 34.31C286.276 34.3046 287.097 33.4046 287.097 32.2459C287.103 31.0711 286.151 30.1118 284.887 30.2627C284.546 30.3058 284.416 30.3273 284.211 30.4297C283.66 30.71 283.195 31.2597 283.119 32.0519Z" fill="#FFFFFF"/>
<path fill-rule="evenodd" clip-rule="evenodd" d="M284.076 30.9898C284.979 30.8443 286.449 30.6988 286.26 31.9114C286.157 32.1 286.016 32.2509 285.811 32.3317C286.073 32.497 286.156 32.8399 286.239 33.1815C286.278 33.3412 286.316 33.5005 286.373 33.6413H285.73C285.659 33.5172 285.62 33.3711 285.582 33.2284C285.481 32.8508 285.386 32.4966 284.719 32.6335V33.6413H284.103C284.062 33.1195 284.069 32.5508 284.075 31.9834C284.079 31.6484 284.082 31.3139 284.076 30.9898ZM284.719 31.464V32.1054C285.184 32.1431 285.622 32.0677 285.589 31.7173C285.557 31.4209 285.103 31.394 284.719 31.464Z" fill="#FFFFFF"/>
<path d="M74.3643 38.3516L71.7862 49.5559L67.1381 38.3516H63.5439L58.9012 49.6044L55.6151 38.3516H51.1777L55.7988 55.2686H59.6416L64.4843 43.6654L69.2784 55.2686H73.0509L77.1208 38.3516H74.3643Z" fill="#FFFFFF"/>
<path d="M95.1513 45.2499H87.4387V38.3516H82.9473V55.2686H87.4387V47.6481H95.1513V55.2686H99.6427V38.3516H95.1513V45.2499Z" fill="#FFFFFF"/>
<rect x="107.177" y="38.3516" width="4.49139" height="16.917" fill="#FFFFFF"/>
<path d="M118.1 40.6744H122.867V55.2686H127.353V40.6744H130.655L132.093 38.3516H119.537L118.1 40.6744Z" fill="#FFFFFF"/>
<path d="M142.653 40.6744H149.674L151.112 38.3516H138.162V55.2686H149.701L151.139 52.9458H142.653V47.7451H149.701L151.139 45.4223H142.653V40.6744Z" fill="#FFFFFF"/>
<path d="M156.82 40.6744H161.582V55.2686H166.073V40.6744H169.376L170.813 38.3516H158.258L156.82 40.6744Z" fill="#FFFFFF"/>
<path fill-rule="evenodd" clip-rule="evenodd" d="M171.856 55.2686L178.829 38.3516H182.498L189.519 55.2686H184.682L182.898 50.817H176.472L174.613 55.2686H171.856ZM179.672 42.7007L177.364 48.4888H181.904L179.672 42.7007Z" fill="#FFFFFF"/>
<rect x="194.978" y="38.3516" width="4.49139" height="16.917" fill="#FFFFFF"/>
<path d="M211.127 38.3516H206.636V55.2686H217.478L218.915 52.9458H211.127V38.3516Z" fill="#FFFFFF"/>
<path d="M232.839 44.8297C231.325 44.5602 229.066 44.2099 229.066 42.5069C229.066 39.8608 232.568 39.8715 235.287 40.6045L236.633 38.4272C235.368 38.1308 233.406 37.8613 231.72 37.8613C226.537 37.8613 224.256 40.4859 224.256 43.2291C224.256 44.959 224.802 46.592 226.612 47.6052C229.563 49.2381 233.287 48.0256 233.287 50.6448C233.287 52.2023 231.947 53.4418 229.839 53.4418C228.401 53.4418 227.066 53.0969 226.034 52.7574L224.559 55.1502C225.575 55.3496 227.585 55.77 230.142 55.77C236.146 55.77 237.833 52.0837 237.833 49.6585C237.822 45.7459 235.12 45.277 232.839 44.8297Z" fill="#FFFFFF"/>
</svg>
